<svg xmlns="http://www.w3.org/2000/svg" viewBox="0 0 256 256" role="img" aria-labelledby="stemma-title stemma-desc">
  <title id="stemma-title">Stemma</title>
  <desc id="stemma-desc">A hexagon enclosing a single trunk that branches into five nodes.</desc>
  <g fill="none" stroke="#02A28D" stroke-width="13.05" stroke-linecap="round" stroke-linejoin="round">
    <path d="M134.93 16.84L222.43 67.69A13.79 13.79 0 0 1 229.29 79.62L229.29 176.38A13.79 13.79 0 0 1 222.43 188.31L134.93 239.16A13.79 13.79 0 0 1 121.07 239.16L33.57 188.31A13.79 13.79 0 0 1 26.71 176.38L26.71 79.62A13.79 13.79 0 0 1 33.57 67.69L121.07 16.84A13.79 13.79 0 0 1 134.93 16.84Z"/>
    <path d="M128 81.71L128 243.19"/>
    <path d="M86.7 111.98L128 152.11"/>
    <path d="M169.3 111.98L128 152.11"/>
    <path d="M86.7 166.5L128 206.64"/>
    <path d="M169.3 166.5L128 206.64"/>
    <circle cx="128" cy="65.87" r="15.84"/>
    <circle cx="75.34" cy="100.94" r="15.84"/>
    <circle cx="180.66" cy="100.94" r="15.84"/>
    <circle cx="75.34" cy="155.46" r="15.84"/>
    <circle cx="180.66" cy="155.46" r="15.84"/>
  </g>
</svg>
